<svg xmlns="http://www.w3.org/2000/svg" version="1.1" xmlns:xlink="http://www.w3.org/1999/xlink" viewBox="0 0 200 200"><rect width="200" height="200" fill="url('#gradient')"></rect><defs><linearGradient id="gradient" gradientTransform="rotate(45 0.5 0.5)"><stop offset="0%" stop-color="#ffffff"></stop><stop offset="100%" stop-color="#ffffff"></stop></linearGradient></defs><g><g fill="#b7cec1" transform="matrix(5.080485115766263,0,0,5.080485115766263,4.559023763668179,136.10121987962145)" stroke="#dedfdf" stroke-width="0.2"><path d="M10.03-8.30L10.03-5.66L4.50-5.66L4.50 0L1.07 0L1.07-14.22L10.59-14.22L10.59-11.57L4.50-11.57L4.50-8.30L10.03-8.30ZM13.95-7.47L13.97-7.49Q13.40-8.31 13.07-9.05Q12.74-9.79 12.74-10.59L12.74-10.59Q12.74-12.30 13.86-13.36Q14.97-14.42 16.77-14.42L16.77-14.42Q18.38-14.42 19.43-13.44Q20.49-12.46 20.49-11.01L20.49-11.01Q20.49-9.19 18.49-7.78L18.49-7.78L17.74-7.27L19.93-4.76Q20.47-5.83 20.47-7.11L20.47-7.11L23.23-7.11Q23.23-4.23 21.90-2.49L21.90-2.49L24.07 0L20.40 0L19.74-0.75Q18.92-0.26 18.06-0.03Q17.21 0.21 16.13 0.21L16.13 0.21Q14.02 0.21 12.75-0.90Q11.48-2.01 11.48-3.82L11.48-3.82Q11.48-4.80 11.99-5.61Q12.49-6.41 13.95-7.47L13.95-7.47ZM16.35-2.33L16.35-2.33Q17.21-2.33 17.99-2.73L17.99-2.73L15.43-5.64L15.34-5.59Q14.79-4.90 14.79-4.04L14.79-4.04Q14.79-3.33 15.23-2.83Q15.68-2.33 16.35-2.33ZM15.59-10.63L15.59-10.63Q15.59-9.94 16.33-8.96L16.33-8.96L16.98-9.38Q17.43-9.67 17.64-9.98Q17.84-10.29 17.84-10.77L17.84-10.77Q17.84-11.22 17.53-11.55Q17.22-11.88 16.76-11.88L16.76-11.88Q16.21-11.88 15.90-11.54Q15.59-11.19 15.59-10.63ZM31.26 0L25.49 0L25.49-14.22L30.60-14.22Q33.34-14.22 34.77-13.21Q36.20-12.21 36.20-10.29L36.20-10.29Q36.20-9.19 35.69-8.41Q35.19-7.63 34.20-7.26L34.20-7.26Q35.31-6.96 35.91-6.16Q36.50-5.36 36.50-4.21L36.50-4.21Q36.50-2.12 35.18-1.07Q33.86-0.02 31.26 0L31.26 0ZM31.32-6.04L28.92-6.04L28.92-2.64L31.16-2.64Q32.09-2.64 32.59-3.06Q33.09-3.49 33.09-4.26L33.09-4.26Q33.09-6.04 31.32-6.04L31.32-6.04ZM28.92-11.57L28.92-8.29L30.70-8.29Q31.83-8.30 32.30-8.70Q32.78-9.10 32.78-9.88L32.78-9.88Q32.78-10.78 32.27-11.18Q31.75-11.57 30.60-11.57L30.60-11.57L28.92-11.57Z"></path></g></g></svg>